<?xml version="1.0" standalone="no"?>
<!DOCTYPE svg PUBLIC "-//W3C//DTD SVG 20010904//EN"
 "http://www.w3.org/TR/2001/REC-SVG-20010904/DTD/svg10.dtd">
<svg version="1.0" xmlns="http://www.w3.org/2000/svg"
 width="1024.000000pt" height="1024.000000pt" viewBox="0 0 1024.000000 1024.000000"
 preserveAspectRatio="xMidYMid meet">

<g transform="translate(0.000000,1024.000000) scale(0.100000,-0.100000)"
fill="#000000" stroke="none">
<path d="M4820 9424 c-307 -28 -408 -39 -587 -65 -528 -76 -1079 -204 -1382
-320 -146 -57 -390 -177 -481 -238 -97 -64 -196 -155 -256 -234 -60 -79 -127
-220 -153 -322 -11 -44 -97 -670 -191 -1391 l-170 -1310 0 -1822 0 -1822 295
0 295 0 0 -322 c0 -253 4 -337 15 -387 53 -224 247 -371 490 -371 226 0 400
119 477 326 21 56 22 78 26 407 l3 347 1915 0 1914 0 0 -313 c0 -344 6 -399
52 -497 80 -168 251 -270 453 -270 243 0 437 147 490 371 11 50 15 134 15 387
l0 322 295 0 295 0 0 1820 0 1821 -170 1312 c-94 722 -180 1348 -191 1392 -41
164 -140 329 -265 443 -363 334 -1225 594 -2376 718 -136 15 -704 27 -808 18z
m1862 -689 c146 -101 109 -338 -61 -385 -50 -14 -2962 -14 -3012 0 -157 44
-206 256 -86 368 57 54 -15 51 1609 49 l1506 -2 44 -30z m835 -851 c107 -44
173 -127 208 -259 8 -33 78 -513 156 -1069 107 -770 139 -1022 134 -1060 -16
-117 -79 -200 -173 -227 -39 -12 -489 -14 -2727 -14 -3000 0 -2744 -7 -2825
74 -47 48 -64 87 -75 176 -8 64 265 2034 296 2140 32 109 85 181 166 224 78
41 11 40 2458 38 l2330 -2 52 -21z m-4686 -3890 c392 -115 474 -643 134 -869
-89 -59 -155 -78 -270 -78 -113 0 -179 19 -273 80 -292 193 -278 641 26 819
106 63 265 82 383 48z m4881 -13 c146 -57 264 -196 297 -349 51 -242 -81 -478
-317 -564 -84 -31 -235 -30 -317 2 -202 78 -325 252 -325 460 0 209 137 395
340 462 78 26 242 20 322 -11z"/>
</g>
</svg>
