<?xml version="1.0" standalone="no"?>
<!DOCTYPE svg PUBLIC "-//W3C//DTD SVG 20010904//EN"
 "http://www.w3.org/TR/2001/REC-SVG-20010904/DTD/svg10.dtd">
<svg version="1.0" xmlns="http://www.w3.org/2000/svg"
 width="920.000000pt" height="512.000000pt" viewBox="0 0 920.000000 512.000000"
 preserveAspectRatio="xMidYMid meet">

<g transform="translate(0.000000,512.000000) scale(0.100000,-0.100000)"
fill="#000000" stroke="none">
<path d="M3415 4674 c-212 -45 -309 -91 -433 -208 -119 -112 -224 -293 -337
-581 -92 -234 -454 -1094 -521 -1238 -80 -170 -87 -219 -80 -541 3 -143 5
-274 3 -291 -1 -16 -2 -289 -2 -605 l0 -575 30 -54 c31 -56 88 -106 148 -128
22 -8 136 -12 363 -12 373 -1 390 1 467 69 26 23 53 60 66 90 21 49 22 65 22
336 l0 284 1474 0 1474 0 3 -292 c3 -330 4 -335 83 -414 71 -70 93 -74 454
-73 215 0 326 4 348 12 60 22 117 72 148 128 l30 54 -1 580 c0 319 0 603 0
630 0 28 0 176 0 330 l-1 280 -45 135 c-25 74 -142 376 -261 670 -119 294
-231 578 -250 630 -141 387 -310 610 -541 715 -163 75 -62 69 -1411 71 -665 1
-1219 0 -1230 -2z m2457 -371 c81 -30 142 -77 204 -156 59 -75 143 -241 198
-389 19 -53 106 -237 191 -409 86 -171 155 -313 153 -314 -2 -2 -34 5 -71 15
-144 40 -199 41 -2017 38 l-1755 -4 -80 -21 c-44 -12 -81 -21 -82 -19 -1 1 71
141 159 311 89 170 186 371 215 445 108 270 213 423 334 486 85 43 71 43 1314
41 l1180 -2 57 -22z m-2600 -2073 c145 -41 185 -235 68 -333 -53 -45 -88 -48
-438 -45 l-327 3 -43 25 c-71 40 -110 127 -92 204 16 70 67 125 138 146 40 12
650 12 694 0z m3349 -5 c54 -19 86 -49 110 -100 49 -105 -9 -234 -119 -265
-22 -6 -168 -10 -358 -10 l-320 0 -52 26 c-158 79 -135 303 36 354 15 5 169 9
343 9 260 1 324 -2 360 -14z m-1236 -117 c71 -55 65 -148 -12 -199 -27 -18
-64 -19 -741 -19 -631 0 -718 2 -747 16 -83 39 -94 144 -20 202 l28 22 732 0
732 0 28 -22z"/>
</g>
</svg>
