<?xml version="1.0" standalone="no"?>
<!DOCTYPE svg PUBLIC "-//W3C//DTD SVG 20010904//EN"
 "http://www.w3.org/TR/2001/REC-SVG-20010904/DTD/svg10.dtd">
<svg version="1.0" xmlns="http://www.w3.org/2000/svg"
 width="890.000000pt" height="890.000000pt" viewBox="0 0 890.000000 890.000000"
 preserveAspectRatio="xMidYMid meet">

<g transform="translate(0.000000,890.000000) scale(0.100000,-0.100000)"
fill="#000000" stroke="none">
<path d="M4265 8154 c-234 -15 -489 -51 -680 -98 -548 -134 -1063 -394 -1505
-759 -110 -91 -386 -368 -476 -477 -482 -585 -766 -1260 -845 -2010 -16 -148
-16 -572 0 -720 111 -1057 650 -2001 1501 -2626 531 -391 1120 -622 1790 -700
201 -24 601 -24 805 0 723 85 1353 350 1930 810 129 103 438 412 541 541 461
578 725 1208 810 1935 24 200 24 601 0 805 -98 837 -449 1576 -1036 2179 -610
627 -1418 1019 -2278 1105 -112 12 -462 21 -557 15z m615 -958 c473 -77 928
-278 1295 -573 310 -249 572 -570 735 -903 39 -79 41 -90 37 -149 -6 -76 -41
-133 -102 -168 -56 -32 -89 -29 -186 18 -85 41 -365 159 -514 216 -44 17 -165
59 -270 92 -877 284 -1653 315 -2506 101 -288 -72 -577 -172 -904 -311 -93
-39 -195 -82 -225 -95 -126 -54 -248 -12 -295 100 -23 55 -15 86 61 228 139
261 292 468 499 673 450 448 1042 728 1682 795 48 5 189 7 313 5 180 -3 256
-9 380 -29z m-225 -1992 c151 -40 301 -134 391 -242 63 -76 134 -215 160 -312
25 -91 25 -301 0 -389 -41 -150 -118 -275 -234 -382 -90 -83 -160 -124 -285
-167 -95 -34 -110 -36 -227 -36 -75 -1 -147 5 -180 13 -287 73 -508 288 -586
572 -25 88 -25 298 0 389 53 195 164 351 322 453 101 64 187 96 334 121 50 9
247 -4 305 -20z m-2447 -1369 c725 -100 1323 -608 1551 -1316 67 -208 101
-450 92 -652 -1 -35 -59 -97 -90 -97 -54 0 -313 93 -478 170 -247 117 -448
249 -648 425 -141 124 -156 138 -249 245 -187 213 -304 387 -426 635 -75 152
-190 461 -190 512 0 33 50 83 90 92 50 11 216 4 348 -14z m4826 16 c34 -1 96
-59 96 -91 0 -62 -101 -334 -195 -525 -345 -700 -964 -1221 -1722 -1449 -70
-22 -86 -20 -122 10 -41 34 -49 69 -44 199 28 870 620 1602 1458 1805 178 43
345 59 529 51z"/>
</g>
</svg>
