<?xml version="1.0" standalone="no"?>
<!DOCTYPE svg PUBLIC "-//W3C//DTD SVG 20010904//EN"
 "http://www.w3.org/TR/2001/REC-SVG-20010904/DTD/svg10.dtd">
<svg version="1.0" xmlns="http://www.w3.org/2000/svg"
 width="920.000000pt" height="925.000000pt" viewBox="0 0 920.000000 925.000000"
 preserveAspectRatio="xMidYMid meet">

<g transform="translate(0.000000,925.000000) scale(0.100000,-0.100000)"
fill="#000000" stroke="none">
<path d="M3807 9225 c-264 -33 -455 -88 -648 -186 -448 -228 -714 -644 -806
-1258 -25 -165 -25 -678 0 -919 l18 -173 -39 -44 c-107 -121 -157 -327 -133
-549 22 -198 101 -400 197 -500 45 -47 131 -96 169 -96 19 0 24 -15 49 -127
91 -422 331 -886 649 -1255 l58 -68 -11 -115 c-23 -249 -75 -410 -149 -462
-12 -7 -89 -31 -173 -53 -500 -127 -1287 -505 -1828 -878 -716 -494 -1112
-996 -1155 -1464 l-7 -78 2389 0 2390 0 7 57 c16 140 119 379 223 518 225 302
560 467 949 466 l141 0 99 100 99 99 -172 172 -173 173 -53 -53 -52 -52 -570
570 -570 570 126 127 125 128 -7 90 -8 90 38 40 c60 62 184 226 265 349 200
304 352 655 408 941 l21 111 49 12 c136 32 248 184 314 428 24 86 27 119 28
254 1 119 -3 170 -17 220 -26 94 -69 182 -116 233 l-40 43 19 205 c50 547 26
899 -87 1268 -93 308 -270 570 -502 744 -218 164 -463 262 -786 312 -149 24
-576 29 -728 10z"/>
<path d="M8179 4016 c-155 -33 -271 -98 -394 -221 -102 -103 -145 -169 -186
-288 -54 -156 -60 -300 -21 -456 l18 -70 -318 -318 -318 -318 -450 450 -450
450 52 52 53 53 -293 293 -292 292 -160 -160 -159 -159 287 -288 c157 -158
291 -288 296 -288 6 0 33 22 61 50 l50 50 450 -450 450 -450 -320 -320 -320
-319 -75 20 c-55 15 -106 20 -190 20 -230 0 -407 -76 -566 -243 -157 -163
-221 -338 -211 -572 5 -127 23 -203 74 -319 l26 -58 177 175 176 176 132 0
132 0 -6 -142 -7 -143 -167 -168 -167 -168 36 -16 c179 -77 312 -102 459 -84
106 13 177 33 257 73 341 171 506 530 418 906 l-17 73 317 317 317 317 267
-267 268 -268 -160 -160 -160 -160 53 -52 52 -53 55 55 55 55 418 -419 c376
-378 423 -422 482 -450 159 -75 346 -30 453 110 43 56 77 155 77 223 0 56 -24
142 -52 191 -12 19 -208 223 -437 452 l-415 418 52 53 52 52 -52 53 -53 52
-157 -157 -158 -158 -265 265 -265 266 317 318 318 318 75 -19 c117 -28 298
-24 415 11 242 72 436 262 522 508 34 97 44 307 19 412 -17 72 -71 214 -87
231 -6 6 -69 -50 -179 -162 l-169 -171 -135 -1 -136 -2 0 133 0 134 175 174
c96 95 174 174 172 175 -28 16 -159 68 -203 80 -82 22 -282 28 -365 11z"/>
</g>
</svg>
