<?xml version="1.0" standalone="no"?>
<!DOCTYPE svg PUBLIC "-//W3C//DTD SVG 20010904//EN"
 "http://www.w3.org/TR/2001/REC-SVG-20010904/DTD/svg10.dtd">
<svg version="1.0" xmlns="http://www.w3.org/2000/svg"
 width="360.000000pt" height="360.000000pt" viewBox="0 0 360.000000 360.000000"
 preserveAspectRatio="xMidYMid meet">

<g transform="translate(0.000000,360.000000) scale(0.100000,-0.100000)"
fill="#000000" stroke="none">
<path d="M1858 3346 c-129 -48 -647 -552 -784 -761 -82 -127 -102 -173 -115
-270 -25 -193 34 -462 188 -855 82 -209 198 -406 363 -620 82 -105 519 -554
562 -576 15 -8 44 -14 65 -14 37 0 58 20 745 707 738 738 732 732 713 793 -4
12 -57 79 -119 149 -61 69 -181 207 -266 306 -199 233 -286 330 -491 550 -242
259 -520 503 -644 565 -72 36 -162 47 -217 26z m141 -235 c65 -20 144 -72 285
-190 255 -211 417 -408 404 -492 -7 -52 -116 -84 -205 -60 -55 15 -164 88
-283 191 -125 106 -228 159 -337 171 -106 11 -139 18 -199 44 -76 33 -109 85
-88 139 9 22 223 191 259 204 46 16 97 14 164 -7z m-659 -351 c-6 -11 -30 -48
-54 -83 -128 -185 -156 -263 -156 -442 0 -118 16 -206 65 -370 106 -348 224
-584 434 -865 30 -41 157 -178 282 -305 124 -126 231 -240 238 -252 15 -30 14
-63 -3 -69 -33 -13 -94 38 -308 254 -272 275 -385 421 -520 672 -86 159 -204
486 -249 690 -25 113 -30 314 -10 400 22 92 134 273 214 348 50 46 86 58 67
22z m1377 -812 l263 -263 93 93 92 92 98 -98 c53 -53 97 -102 97 -107 0 -13
-352 -365 -365 -365 -16 0 -725 713 -725 730 0 16 159 180 175 180 5 0 128
-118 272 -262z m183 -743 c0 -16 -163 -175 -180 -175 -17 0 -730 709 -730 726
0 6 41 50 91 99 l90 89 365 -365 c200 -200 364 -368 364 -374z m-880 318 c43
-20 98 -69 251 -222 229 -229 244 -252 244 -376 0 -69 -4 -86 -27 -127 -83
-140 -232 -191 -375 -128 -72 32 -433 393 -473 474 -69 137 -19 293 118 373
84 49 166 51 262 6z"/>
<path d="M1894 1259 c-7 -12 303 -329 323 -329 6 0 15 5 18 11 8 12 -302 329
-322 329 -6 0 -15 -5 -19 -11z"/>
<path d="M733 3101 c-61 -49 -216 -209 -233 -240 -10 -20 -9 -27 8 -51 11 -15
27 -43 35 -61 8 -19 28 -49 45 -66 54 -59 67 -53 243 123 141 141 155 158 151
185 -4 30 -75 99 -101 99 -7 0 -29 11 -49 25 -20 14 -40 25 -43 25 -4 0 -29
-17 -56 -39z"/>
<path d="M869 2764 l-164 -164 19 -33 c11 -17 56 -97 102 -176 92 -159 83
-156 99 -30 11 87 105 252 220 383 l64 74 -88 55 -89 54 -163 -163z"/>
<path d="M371 2603 c-24 -51 -158 -426 -214 -598 -126 -385 -168 -576 -149
-683 22 -133 103 -240 222 -296 80 -38 196 -47 282 -22 161 46 278 206 278
378 0 134 -97 471 -272 948 -94 254 -113 300 -127 300 -4 0 -13 -12 -20 -27z
m-81 -524 c-17 -118 -37 -252 -45 -299 -29 -158 -80 -269 -106 -230 -15 22 -3
143 26 250 36 135 148 500 152 496 2 -2 -10 -99 -27 -217z"/>
</g>
</svg>
