<?xml version="1.0" standalone="no"?>
<!DOCTYPE svg PUBLIC "-//W3C//DTD SVG 20010904//EN"
 "http://www.w3.org/TR/2001/REC-SVG-20010904/DTD/svg10.dtd">
<svg version="1.0" xmlns="http://www.w3.org/2000/svg"
 width="851.000000pt" height="1280.000000pt" viewBox="0 0 851.000000 1280.000000"
 preserveAspectRatio="xMidYMid meet">
<g transform="translate(0.000000,1280.000000) scale(0.100000,-0.100000)"
fill="#000000" stroke="none">
<path d="M3543 12775 c-135 -42 -229 -123 -286 -243 -30 -63 -32 -74 -32 -182
0 -109 2 -119 32 -183 106 -224 367 -319 587 -214 179 85 280 278 247 468 -33
180 -154 308 -341 360 -87 24 -117 23 -207 -6z"/>
<path d="M4753 12780 c-181 -53 -302 -183 -334 -359 -33 -190 69 -383 247
-468 220 -105 481 -9 587 214 30 64 32 74 32 183 0 108 -2 119 -32 182 -58
122 -152 201 -291 244 -89 28 -124 28 -209 4z"/>
<path d="M2028 11705 c-393 -54 -732 -235 -1001 -534 -172 -192 -297 -440
-364 -721 -16 -71 -18 -248 -21 -3145 -2 -2217 0 -3092 8 -3150 47 -335 201
-650 439 -899 210 -217 456 -364 712 -422 46 -10 69 -20 69 -30 0 -8 -419
-642 -930 -1409 l-930 -1395 533 0 c515 0 534 1 543 19 5 11 306 454 668 985
l660 966 1841 0 1841 0 660 -966 c362 -531 663 -974 668 -985 9 -18 28 -19
543 -19 l533 0 -930 1395 c-511 767 -930 1401 -930 1409 0 10 23 20 69 30 256
58 502 205 712 422 238 249 392 564 439 899 8 58 10 933 8 3150 -3 2897 -5
3074 -21 3145 -162 685 -687 1165 -1374 1255 -98 13 -403 15 -2231 14 -1698
-1 -2136 -4 -2214 -14z m3127 -329 c65 -30 131 -104 150 -169 12 -39 15 -109
15 -307 0 -198 -3 -268 -15 -307 -18 -60 -80 -135 -139 -166 l-41 -22 -870 0
-870 0 -41 22 c-59 31 -121 106 -139 166 -12 39 -15 109 -15 307 0 198 3 268
15 307 19 65 85 139 150 169 l50 24 850 0 850 0 50 -24z m1227 -1290 c174 -34
288 -94 409 -215 75 -75 93 -100 137 -191 90 -187 86 -146 90 -890 3 -709 2
-726 -52 -876 -82 -226 -285 -402 -541 -470 -67 -18 -151 -19 -2170 -19 -2019
0 -2103 1 -2170 19 -256 68 -459 244 -541 470 -54 150 -55 167 -52 876 4 744
0 702 90 890 44 91 62 116 137 191 119 118 233 179 401 214 101 20 4156 21
4262 1z m-4024 -5012 c483 -100 726 -629 487 -1061 -24 -43 -70 -99 -125 -154
-71 -71 -103 -94 -181 -133 -124 -61 -212 -79 -354 -73 -84 3 -129 11 -190 31
-353 119 -556 475 -480 841 56 269 306 508 580 554 82 14 181 12 263 -5z
m4060 0 c335 -69 575 -362 575 -704 0 -130 -18 -204 -80 -330 -80 -164 -234
-296 -418 -357 -72 -24 -95 -27 -220 -27 -125 0 -148 3 -220 27 -115 38 -199
91 -290 182 -137 136 -208 307 -208 500 0 289 155 532 418 656 141 66 291 84
443 53z"/>
</g>
</svg>
