<?xml version="1.0" standalone="no"?>
<!DOCTYPE svg PUBLIC "-//W3C//DTD SVG 20010904//EN"
 "http://www.w3.org/TR/2001/REC-SVG-20010904/DTD/svg10.dtd">
<svg version="1.0" xmlns="http://www.w3.org/2000/svg"
 width="1280.000000pt" height="1119.000000pt" viewBox="0 0 1280.000000 1119.000000"
 preserveAspectRatio="xMidYMid meet">
<g transform="translate(0.000000,1119.000000) scale(0.100000,-0.100000)"
fill="#000000" stroke="none">
<path d="M5850 10715 l0 -475 253 -2 252 -3 0 -1455 0 -1455 -1854 -3 c-1369
-1 -1857 1 -1868 9 -11 10 -13 106 -11 557 l3 546 50 29 c117 68 202 190 225
324 16 96 10 497 -8 515 -10 10 -154 14 -704 16 -609 2 -694 1 -714 -13 l-24
-15 0 -243 c0 -265 7 -318 58 -410 36 -67 114 -142 187 -182 l60 -32 3 -543
c2 -428 0 -545 -10 -552 -7 -4 -105 -8 -218 -8 -230 0 -338 -16 -452 -66 -222
-98 -361 -249 -424 -464 -12 -41 -26 -75 -32 -75 -5 0 -25 20 -43 44 -19 26
-56 56 -83 70 -44 23 -64 26 -181 29 -169 5 -175 3 -175 -82 0 -58 -3 -67 -27
-88 -50 -43 -65 -66 -89 -135 -22 -62 -24 -84 -24 -246 0 -221 15 -282 92
-363 43 -45 48 -56 48 -95 0 -25 5 -50 12 -57 16 -16 257 -16 313 -1 26 8 58
30 97 70 37 38 60 55 63 47 3 -7 7 -526 9 -1153 2 -627 5 -1156 7 -1175 l4
-35 -297 -3 -298 -2 0 -585 0 -585 619 0 c375 0 622 -4 626 -9 3 -6 -14 -40
-39 -78 -97 -151 -174 -339 -213 -523 -14 -66 -18 -130 -18 -280 0 -217 11
-288 70 -467 168 -503 607 -885 1125 -977 52 -9 119 -21 149 -26 87 -16 172
-12 326 15 329 56 575 175 797 384 209 197 354 441 424 717 13 53 26 100 29
105 4 5 227 9 550 9 l545 0 6 -27 c76 -334 192 -552 409 -768 255 -255 510
-375 926 -435 200 -29 516 33 754 149 394 193 678 541 784 963 l28 113 549 0
548 0 27 -105 c15 -58 38 -134 52 -170 180 -476 612 -836 1107 -924 52 -9 119
-21 149 -26 87 -16 172 -12 326 15 353 61 596 184 835 424 210 212 339 449
402 744 29 137 31 417 4 552 -37 189 -102 354 -200 512 -31 51 -54 97 -51 103
4 6 140 10 376 10 l369 0 0 583 c0 571 0 582 -20 595 -20 12 -20 23 -20 3336
0 1829 3 3331 6 3340 5 14 32 16 200 16 l194 0 0 475 0 475 -3475 0 -3475 0 0
-475z m5048 -2096 c2 -856 0 -1028 -12 -1038 -10 -8 -448 -10 -1662 -9 l-1649
3 -3 1038 -2 1037 1662 -2 1663 -3 3 -1026z m-5602 -6263 c3 -8 -13 -42 -36
-76 -23 -34 -66 -112 -96 -174 -86 -179 -129 -356 -141 -578 l-6 -118 -527 0
-527 0 -6 123 c-3 67 -13 163 -22 212 -31 173 -115 386 -210 529 -25 39 -43
76 -41 83 8 20 1604 19 1612 -1z m4009 5 c3 -6 -14 -40 -39 -78 -143 -222
-221 -467 -234 -733 l-7 -135 -530 0 -530 0 -6 140 c-12 264 -88 504 -228 718
-28 43 -49 82 -46 88 8 12 1612 12 1620 0z"/>
</g>
</svg>
